<?xml version="1.0" encoding="UTF-8" standalone="no"?>
<!-- Created with Inkscape (http://www.inkscape.org/) -->

<svg
   xmlns:dc="http://purl.org/dc/elements/1.1/"
   xmlns:cc="http://creativecommons.org/ns#"
   xmlns:rdf="http://www.w3.org/1999/02/22-rdf-syntax-ns#"
   xmlns:svg="http://www.w3.org/2000/svg"
   xmlns="http://www.w3.org/2000/svg"
   xmlns:sodipodi="http://sodipodi.sourceforge.net/DTD/sodipodi-0.dtd"
   xmlns:inkscape="http://www.inkscape.org/namespaces/inkscape"
   width="148.34177mm"
   height="106.57187mm"
   viewBox="0 0 148.34177 106.57187"
   version="1.1"
   id="svg5405"
   inkscape:version="0.92.1 r15371"
   sodipodi:docname="custom-keys.svg">
  <defs
     id="defs5399" />
  <sodipodi:namedview
     id="base"
     pagecolor="#ffffff"
     bordercolor="#666666"
     borderopacity="1.0"
     inkscape:pageopacity="0.0"
     inkscape:pageshadow="2"
     inkscape:zoom="0.7"
     inkscape:cx="306.01044"
     inkscape:cy="349.34044"
     inkscape:document-units="mm"
     inkscape:current-layer="layer1"
     showgrid="false"
     inkscape:window-width="1920"
     inkscape:window-height="1017"
     inkscape:window-x="-8"
     inkscape:window-y="-8"
     inkscape:window-maximized="1"
     fit-margin-top="0"
     fit-margin-left="0"
     fit-margin-right="0"
     fit-margin-bottom="0" />
  <metadata
     id="metadata5402">
    <rdf:RDF>
      <cc:Work
         rdf:about="">
        <dc:format>image/svg+xml</dc:format>
        <dc:type
           rdf:resource="http://purl.org/dc/dcmitype/StillImage" />
        <dc:title></dc:title>
      </cc:Work>
    </rdf:RDF>
  </metadata>
  <g
     inkscape:label="Livello 1"
     inkscape:groupmode="layer"
     id="layer1"
     transform="translate(-28.35516,-33.370452)">
    <path
       style="fill:#cdd2e1;stroke-width:0.18815143"
       inkscape:connector-curvature="0"
       d="M 52.919718,101.69172 H 84.0845 v 31.16553 H 52.919718 Z m 0,0"
       id="path6016" />
    <path
       style="fill:#afb4c8;stroke-width:0.18815143"
       inkscape:connector-curvature="0"
       d="m 52.919718,101.69172 h 8.499154 v 31.16553 h -8.499154 z m 0,0"
       id="path6018" />
    <path
       style="fill:#ffe45c;stroke-width:0.18815143"
       inkscape:connector-curvature="0"
       d="M 52.919718,132.85725 H 84.0845 v 5.66585 H 52.919718 Z m 0,0"
       id="path6020" />
    <path
       style="fill:#ffb13b;stroke-width:0.18815143"
       inkscape:connector-curvature="0"
       d="m 52.919718,132.85725 h 8.499154 v 5.66585 h -8.499154 z m 0,0"
       id="path6022" />
    <path
       style="fill:#2a85ff;fill-opacity:1;stroke-width:0.18815143"
       inkscape:connector-curvature="0"
       d="m 72.74838,122.3531 -0.58503,0.58504 h -2.24239 v -8.49695 h -2.83844 v 8.49695 h -2.242379 l -0.585033,-0.58504 v -12.16149 h -2.839177 v 13.33744 l 2.248263,2.24753 h 9.675096 l 2.24827,-2.24753 v -13.33744 h -2.83918 z m 0,0"
       id="path6048" />
    <path
       style="fill:#231f20;stroke-width:0.18815143"
       id="path6062"
       d="M 85.50373,100.2725 H 51.499763 v 39.66982 H 85.50373 Z m -31.164791,2.83918 H 82.66455 v 28.32561 H 54.338939 Z m 0,33.9922 v -2.82741 H 82.66455 v 2.82741 z m 0,0"
       inkscape:connector-curvature="0" />
    <path
       style="fill:#231f20;stroke-width:0.18815143"
       id="path6072"
       d="m 57.131078,105.63996 h 2.844319 v 2.83918 h -2.844319 z m 0,0"
       inkscape:connector-curvature="0" />
    <path
       style="fill:#231f20;stroke-width:0.18815143"
       id="path6074"
       d="m 76.8517,105.63996 h 2.84432 v 2.83918 H 76.8517 Z m 0,0"
       inkscape:connector-curvature="0" />
    <path
       style="fill:#cdd2e1;stroke-width:0.18815143"
       inkscape:connector-curvature="0"
       d="m 144.11291,79.39086 h 31.16479 v 31.16553 h -31.16479 z m 0,0"
       id="path6016-8" />
    <path
       style="fill:#afb4c8;stroke-width:0.18815143"
       inkscape:connector-curvature="0"
       d="m 144.11291,79.39086 h 8.49916 v 31.16553 h -8.49916 z m 0,0"
       id="path6018-8" />
    <path
       style="fill:#ffe45c;stroke-width:0.18815143"
       inkscape:connector-curvature="0"
       d="m 144.11291,110.55639 h 31.16479 v 5.66585 h -31.16479 z m 0,0"
       id="path6020-0" />
    <path
       style="fill:#ffb13b;stroke-width:0.18815143"
       inkscape:connector-curvature="0"
       d="m 144.11291,110.55639 h 8.49916 v 5.66585 h -8.49916 z m 0,0"
       id="path6022-7" />
    <path
       style="fill:#231f20;stroke-width:0.18815143"
       id="path6062-5"
       d="m 176.69693,77.97164 h -34.00397 v 39.66981 h 34.00397 z m -31.16479,2.83918 h 28.32561 v 28.32561 h -28.32561 z m 0,33.9922 v -2.82741 h 28.32561 v 2.82741 z m 0,0"
       inkscape:connector-curvature="0" />
    <path
       style="fill:#231f20;stroke-width:0.18815143"
       id="path6072-7"
       d="m 148.32427,83.3391 h 2.84432 v 2.83918 h -2.84432 z m 0,0"
       inkscape:connector-curvature="0" />
    <path
       style="fill:#231f20;stroke-width:0.18815143"
       id="path6074-4"
       d="m 168.0449,83.3391 h 2.84432 v 2.83918 h -2.84432 z m 0,0"
       inkscape:connector-curvature="0" />
    <path
       style="fill:#cdd2e1;stroke-width:0.18815143"
       inkscape:connector-curvature="0"
       d="M 29.77511,48.396813 H 60.9399 v 31.16553 H 29.77511 Z m 0,0"
       id="path6016-2" />
    <path
       style="fill:#afb4c8;stroke-width:0.18815143"
       inkscape:connector-curvature="0"
       d="m 29.77511,48.396813 h 8.49916 v 31.16553 h -8.49916 z m 0,0"
       id="path6018-2" />
    <path
       style="fill:#ffe45c;stroke-width:0.18815143"
       inkscape:connector-curvature="0"
       d="M 29.77511,79.562343 H 60.9399 v 5.66585 H 29.77511 Z m 0,0"
       id="path6020-2" />
    <path
       style="fill:#ffb13b;stroke-width:0.18815143"
       inkscape:connector-curvature="0"
       d="m 29.77511,79.562343 h 8.49916 v 5.66585 h -8.49916 z m 0,0"
       id="path6022-76" />
    <path
       style="fill:#231f20;stroke-width:0.18815143"
       id="path6062-4"
       d="M 62.35913,46.977593 H 28.35516 v 39.66981 H 62.35913 Z M 31.19434,49.816769 H 59.51995 V 78.142383 H 31.19434 Z m 0,33.992204 v -2.82741 h 28.32561 v 2.82741 z m 0,0"
       inkscape:connector-curvature="0" />
    <path
       style="fill:#231f20;stroke-width:0.18815143"
       id="path6072-6"
       d="m 33.98647,52.345053 h 2.84432 v 2.83918 h -2.84432 z m 0,0"
       inkscape:connector-curvature="0" />
    <path
       style="fill:#231f20;stroke-width:0.18815143"
       id="path6074-9"
       d="m 53.7071,52.345053 h 2.84432 v 2.83918 H 53.7071 Z m 0,0"
       inkscape:connector-curvature="0" />
    <path
       style="fill:#b61f20;fill-opacity:1;stroke-width:0.18815143"
       id="path6064-0"
       d="m 38.265944,72.854387 h 2.839176 v -7.07994 h 8.493273 v 7.07994 H 52.43757 V 55.852407 H 38.265944 Z m 11.332449,-14.16281 v 4.2437 H 41.10512 v -4.2437 z m 0,0"
       inkscape:connector-curvature="0" />
    <path
       style="fill:#cdd2e1;stroke-width:0.18815143"
       inkscape:connector-curvature="0"
       d="M 94.976005,34.789672 H 126.1408 v 31.16553 H 94.976005 Z m 0,0"
       id="path6016-2-1" />
    <path
       style="fill:#afb4c8;stroke-width:0.18815143"
       inkscape:connector-curvature="0"
       d="m 94.976005,34.789672 h 8.499165 v 31.16553 h -8.499165 z m 0,0"
       id="path6018-2-2" />
    <path
       style="fill:#ffe45c;stroke-width:0.18815143"
       inkscape:connector-curvature="0"
       d="M 94.976005,65.955202 H 126.1408 v 5.665851 H 94.976005 Z m 0,0"
       id="path6020-2-8" />
    <path
       style="fill:#ffb13b;stroke-width:0.18815143"
       inkscape:connector-curvature="0"
       d="m 94.976005,65.955202 h 8.499165 v 5.665851 h -8.499165 z m 0,0"
       id="path6022-76-8" />
    <path
       style="fill:#231f20;stroke-width:0.18815143"
       id="path6062-4-1"
       d="M 127.56003,33.370452 H 93.556055 v 39.66981 H 127.56003 Z M 96.395235,36.209628 H 124.72085 V 64.535241 H 96.395235 Z m 0,33.992205 v -2.827411 h 28.325615 v 2.827411 z m 0,0"
       inkscape:connector-curvature="0" />
    <path
       style="fill:#231f20;stroke-width:0.18815143"
       id="path6072-6-3"
       d="m 99.187365,38.737912 h 2.844325 v 2.83918 h -2.844325 z m 0,0"
       inkscape:connector-curvature="0" />
    <path
       style="fill:#231f20;stroke-width:0.18815143"
       id="path6074-9-4"
       d="m 118.908,38.737912 h 2.84432 v 2.83918 H 118.908 Z m 0,0"
       inkscape:connector-curvature="0" />
    <path
       style="fill:#231f20;stroke-width:0.18815143"
       id="path6064-0-6"
       d="m 103.46684,59.247246 h 2.83918 v -7.07994 h 8.49327 v 7.07994 h 2.83918 v -17.00198 h -14.17163 z m 11.33245,-14.16281 v 4.2437 h -8.49327 v -4.2437 z m 0,0"
       inkscape:connector-curvature="0" />
    <path
       style="fill:#ff7933;fill-opacity:1;stroke-width:0.18815143"
       id="path6066"
       d="m 153.18158,87.847985 v 15.588635 h 11.92336 l 2.24826,-2.24827 V 90.096245 l -2.24826,-2.24753 h -11.92336 z m 11.33245,12.164425 -0.58503,0.58503 h -7.90824 v -9.910285 h 7.90824 l 0.58503,0.58503 z m 0,0"
       inkscape:connector-curvature="0" />
  </g>
</svg>
