<?xml version="1.0" encoding="UTF-8" standalone="no"?>
<svg
   xmlns:dc="http://purl.org/dc/elements/1.1/"
   xmlns:cc="http://creativecommons.org/ns#"
   xmlns:rdf="http://www.w3.org/1999/02/22-rdf-syntax-ns#"
   xmlns:svg="http://www.w3.org/2000/svg"
   xmlns="http://www.w3.org/2000/svg"
   xmlns:sodipodi="http://sodipodi.sourceforge.net/DTD/sodipodi-0.dtd"
   xmlns:inkscape="http://www.inkscape.org/namespaces/inkscape"
   height="511pt"
   version="1.1"
   viewBox="1 -10 511.99998 511"
   width="511pt"
   id="svg23"
   sodipodi:docname="pc.svg"
   inkscape:version="0.92.1 r15371">
  <metadata
     id="metadata29">
    <rdf:RDF>
      <cc:Work
         rdf:about="">
        <dc:format>image/svg+xml</dc:format>
        <dc:type
           rdf:resource="http://purl.org/dc/dcmitype/StillImage" />
      </cc:Work>
    </rdf:RDF>
  </metadata>
  <defs
     id="defs27" />
  <sodipodi:namedview
     pagecolor="#ffffff"
     bordercolor="#666666"
     borderopacity="1"
     objecttolerance="10"
     gridtolerance="10"
     guidetolerance="10"
     inkscape:pageopacity="0"
     inkscape:pageshadow="2"
     inkscape:window-width="1920"
     inkscape:window-height="1017"
     id="namedview25"
     showgrid="false"
     inkscape:zoom="0.4898548"
     inkscape:cx="248.27821"
     inkscape:cy="474.11132"
     inkscape:window-x="-8"
     inkscape:window-y="-8"
     inkscape:window-maximized="1"
     inkscape:current-layer="svg23" />
  <path
     inkscape:connector-curvature="0"
     id="path2"
     style="fill:#e6e6e6;fill-opacity:1;fill-rule:nonzero;stroke:none"
     d="M 366.75781,455.3125 H 145.24219 l 15.28515,-31.34766 16.3125,-33.4375 h 158.32032 l 16.3125,33.4375 z m 0,0" />
  <path
     inkscape:connector-curvature="0"
     id="path4"
     style="fill:#cccccc;fill-opacity:1;fill-rule:nonzero;stroke:none"
     d="m 430.49609,473.46094 c 0,10.02343 -8.1289,18.14062 -18.14843,18.14062 H 99.640625 c -5.015625,0 -9.550781,-2.02734 -12.832031,-5.30859 -3.28125,-3.28906 -5.304688,-7.82422 -5.304688,-12.83203 0,-10.03125 8.117188,-18.14844 18.136719,-18.14844 H 412.34766 c 5.0039,0 9.55078,2.02734 12.83203,5.30859 3.29297,3.29297 5.3164,7.82422 5.3164,12.83985 z m 0,0" />
  <path
     inkscape:connector-curvature="0"
     id="path6"
     style="fill:#e6e6e6;fill-opacity:1;fill-rule:nonzero;stroke:none"
     d="m 430.49609,473.46094 c 0,10.02343 -8.1289,18.14062 -18.14843,18.14062 H 202.04297 c -5.01563,0 -9.55078,-2.02734 -12.83203,-5.30859 -3.28125,-3.28906 -5.3086,-7.82422 -5.3086,-12.83203 0,-10.03125 8.11719,-18.14844 18.14063,-18.14844 h 210.30469 c 5.0039,0 9.55078,2.02734 12.83203,5.30859 3.29297,3.29297 5.3164,7.82422 5.3164,12.83985 z m 0,0" />
  <path
     inkscape:connector-curvature="0"
     id="path8"
     style="fill:#3fbfe1;fill-opacity:1;fill-rule:nonzero;stroke:none"
     d="M 512,51.144531 V 339.88281 c 0,27.97266 -22.67578,50.64453 -50.64453,50.64453 H 50.636719 C 22.675781,390.52734 0,367.85547 0,339.88281 V 51.144531 C 0,23.175781 22.675781,0.5 50.636719,0.5 H 461.35547 C 489.32422,0.5 512,23.175781 512,51.144531 Z m 0,0" />
  <path
     inkscape:connector-curvature="0"
     id="path10"
     style="fill:#e6e6e6;fill-opacity:1;fill-rule:nonzero;stroke:none"
     d="m 512,298.57812 v 41.30469 c 0,27.97266 -22.67578,50.64453 -50.64453,50.64453 H 50.636719 C 22.675781,390.52734 0,367.85547 0,339.88281 v -41.30469 z m 0,0" />
  <path
     inkscape:connector-curvature="0"
     id="path12"
     style="fill:#cccccc;fill-opacity:1;fill-rule:nonzero;stroke:none"
     d="M 351.47266,423.96484 H 160.52734 l 16.3125,-33.4375 h 158.32032 z m 0,0" />
  <path
     inkscape:connector-curvature="0"
     id="path14"
     style="fill:#cccccc;fill-opacity:1;fill-rule:nonzero;stroke:none"
     d="m 276.89453,343.51172 c 0,11.53906 -9.35547,20.89844 -20.89844,20.89844 -11.53906,0 -20.89843,-9.35938 -20.89843,-20.89844 0,-11.54297 9.35937,-20.89844 20.89843,-20.89844 11.54297,0 20.89844,9.35547 20.89844,20.89844 z m 0,0" />
</svg>
