<?xml version="1.0" encoding="UTF-8" standalone="no"?>
<!-- Created with Inkscape (http://www.inkscape.org/) -->

<svg
   xmlns:osb="http://www.openswatchbook.org/uri/2009/osb"
   xmlns:dc="http://purl.org/dc/elements/1.1/"
   xmlns:cc="http://creativecommons.org/ns#"
   xmlns:rdf="http://www.w3.org/1999/02/22-rdf-syntax-ns#"
   xmlns:svg="http://www.w3.org/2000/svg"
   xmlns="http://www.w3.org/2000/svg"
   xmlns:sodipodi="http://sodipodi.sourceforge.net/DTD/sodipodi-0.dtd"
   xmlns:inkscape="http://www.inkscape.org/namespaces/inkscape"
   width="104.18531mm"
   height="69.803505mm"
   viewBox="0 0 104.18531 69.803505"
   version="1.1"
   id="svg8"
   inkscape:export-filename="E:\Develop\MacroKeys\img\smartphone-pc-comunication.png"
   inkscape:export-xdpi="96"
   inkscape:export-ydpi="96"
   inkscape:version="0.92.1 r15371"
   sodipodi:docname="smartphone-pc-comunication.svg">
  <defs
     id="defs2">
    <inkscape:path-effect
       effect="spiro"
       id="path-effect6033"
       is_visible="true" />
    <linearGradient
       id="linearGradient6009"
       osb:paint="solid">
      <stop
         style="stop-color:#2f3f51;stop-opacity:1;"
         offset="0"
         id="stop6007" />
    </linearGradient>
    <inkscape:path-effect
       effect="spiro"
       id="path-effect6033-0"
       is_visible="true" />
    <inkscape:path-effect
       effect="spiro"
       id="path-effect6033-0-7"
       is_visible="true" />
    <inkscape:path-effect
       effect="spiro"
       id="path-effect6033-0-5"
       is_visible="true" />
    <inkscape:path-effect
       effect="spiro"
       id="path-effect6033-5"
       is_visible="true" />
    <inkscape:path-effect
       effect="spiro"
       id="path-effect6033-0-7-1"
       is_visible="true" />
    <inkscape:path-effect
       effect="spiro"
       id="path-effect6033-0-3"
       is_visible="true" />
    <inkscape:path-effect
       effect="spiro"
       id="path-effect6033-7"
       is_visible="true" />
    <inkscape:path-effect
       effect="spiro"
       id="path-effect6033-0-7-13"
       is_visible="true" />
  </defs>
  <sodipodi:namedview
     id="base"
     pagecolor="#ffffff"
     bordercolor="#666666"
     borderopacity="1.0"
     inkscape:pageopacity="0.0"
     inkscape:pageshadow="2"
     inkscape:zoom="2.8"
     inkscape:cx="175.0756"
     inkscape:cy="167.60839"
     inkscape:document-units="mm"
     inkscape:current-layer="layer1"
     showgrid="false"
     inkscape:window-width="1920"
     inkscape:window-height="1017"
     inkscape:window-x="-8"
     inkscape:window-y="-8"
     inkscape:window-maximized="1"
     inkscape:pagecheckerboard="false"
     fit-margin-top="0"
     fit-margin-left="0"
     fit-margin-right="0"
     fit-margin-bottom="0" />
  <metadata
     id="metadata5">
    <rdf:RDF>
      <cc:Work
         rdf:about="">
        <dc:format>image/svg+xml</dc:format>
        <dc:type
           rdf:resource="http://purl.org/dc/dcmitype/StillImage" />
        <dc:title></dc:title>
      </cc:Work>
    </rdf:RDF>
  </metadata>
  <g
     inkscape:label="Livello 1"
     inkscape:groupmode="layer"
     id="layer1"
     transform="translate(-82.591066,-103.06557)">
    <path
       style="fill:none;fill-opacity:1;fill-rule:nonzero;stroke:#2f3f51;stroke-width:0.64221346;stroke-linecap:butt;stroke-linejoin:round;stroke-miterlimit:4;stroke-dasharray:none;stroke-dashoffset:0;stroke-opacity:1;paint-order:markers stroke fill"
       d="m 94.670916,132.78157 c 1.338456,-0.0132 2.677971,0.39666 3.779919,1.15649 1.101948,0.75984 1.961215,1.86615 2.424735,3.12185 0.25153,0.68142 0.38854,1.40495 0.40357,2.13115"
       id="path6031-7"
       inkscape:connector-curvature="0"
       inkscape:path-effect="#path-effect6033-5"
       inkscape:original-d="m 94.670916,132.78157 c 2.06845,1.42619 4.136669,2.8523 6.204654,4.27834 2.068,1.42603 0.26928,1.42085 0.40357,2.13115" />
    <path
       style="fill:none;fill-opacity:1;fill-rule:nonzero;stroke:#2f3f51;stroke-width:0.64221346;stroke-linecap:butt;stroke-linejoin:round;stroke-miterlimit:4;stroke-dasharray:none;stroke-dashoffset:0;stroke-opacity:1;paint-order:markers stroke fill"
       d="m 95.099994,130.78892 c 1.472064,0.001 2.941769,0.40683 4.206164,1.16068 1.264392,0.75384 2.320032,1.85391 3.021132,3.14829 0.63535,1.17299 0.97934,2.5024 0.99266,3.83634"
       id="path6031-8-1"
       inkscape:connector-curvature="0"
       inkscape:path-effect="#path-effect6033-0-5"
       inkscape:original-d="m 95.099994,130.78892 c 2.123938,1.34216 5.103826,2.96695 7.227296,4.30897 2.12348,1.34201 0.83002,3.13198 0.99266,3.83634"
       sodipodi:nodetypes="ccc" />
    <path
       style="fill:none;fill-opacity:1;fill-rule:nonzero;stroke:#2f3f51;stroke-width:0.64221346;stroke-linecap:butt;stroke-linejoin:round;stroke-miterlimit:4;stroke-dasharray:none;stroke-dashoffset:0;stroke-opacity:1;paint-order:markers stroke fill"
       d="m 95.048034,128.86731 c 1.792947,-0.18122 3.636986,0.17766 5.231106,1.01808 1.59411,0.84041 2.93215,2.1591 3.79568,3.74081 0.91963,1.68445 1.29506,3.66058 1.05726,5.56493"
       id="path6031-8-9-3"
       inkscape:connector-curvature="0"
       inkscape:path-effect="#path-effect6033-0-7-1"
       inkscape:original-d="m 95.048034,128.86731 c 2.123938,1.34216 6.903306,3.41687 9.026786,4.75889 2.12347,1.34201 0.89462,4.86057 1.05726,5.56493"
       sodipodi:nodetypes="ccc" />
    <path
       style="fill:none;fill-opacity:1;fill-rule:nonzero;stroke:#2f3f51;stroke-width:1;stroke-linecap:butt;stroke-linejoin:round;stroke-miterlimit:4;stroke-dasharray:none;stroke-dashoffset:0;stroke-opacity:1;paint-order:markers stroke fill"
       d="m 120.37636,119.24668 c 0.15931,-2.07814 0.97499,-4.10111 2.30172,-5.70853 1.32673,-1.60742 3.15837,-2.79184 5.16861,-3.34226 1.09087,-0.29869 2.23169,-0.41406 3.36028,-0.33984"
       id="path6031-2"
       inkscape:connector-curvature="0"
       inkscape:path-effect="#path-effect6033-7"
       inkscape:original-d="m 120.37636,119.24668 c 2.49026,-3.01728 4.98037,-6.03421 7.47033,-9.05079 2.48995,-3.0166 2.24034,-0.22691 3.36028,-0.33984" />
    <path
       style="fill:none;fill-opacity:1;fill-rule:nonzero;stroke:#2f3f51;stroke-width:1;stroke-linecap:butt;stroke-linejoin:round;stroke-miterlimit:4;stroke-dasharray:none;stroke-dashoffset:0;stroke-opacity:1;paint-order:markers stroke fill"
       d="m 117.34277,118.31343 c 0.19967,-2.28346 1.0262,-4.50897 2.36545,-6.3692 1.33925,-1.86023 3.18757,-3.35012 5.28972,-4.26391 1.905,-0.8281 4.01353,-1.18319 6.08468,-1.02471"
       id="path6031-8-2"
       inkscape:connector-curvature="0"
       inkscape:path-effect="#path-effect6033-0-3"
       inkscape:original-d="m 117.34277,118.31343 c 2.36735,-3.11464 5.2881,-7.51916 7.65517,-10.63311 2.36707,-3.11395 4.97016,-0.86699 6.08468,-1.02471"
       sodipodi:nodetypes="ccc" />
    <path
       style="fill:none;fill-opacity:1;fill-rule:nonzero;stroke:#2f3f51;stroke-width:1;stroke-linecap:butt;stroke-linejoin:round;stroke-miterlimit:4;stroke-dasharray:none;stroke-dashoffset:0;stroke-opacity:1;paint-order:markers stroke fill"
       d="m 114.35477,118.13597 c -0.0403,-2.80576 0.76406,-5.61824 2.28189,-7.97834 1.51783,-2.36011 3.74322,-4.25872 6.31292,-5.38591 2.73661,-1.20041 5.85263,-1.51744 8.77493,-0.89279"
       id="path6031-8-9-6"
       inkscape:connector-curvature="0"
       inkscape:path-effect="#path-effect6033-0-7-13"
       inkscape:original-d="m 114.35477,118.13597 c 2.36735,-3.11464 6.22774,-10.2503 8.59481,-13.36425 2.36707,-3.11395 7.66042,-0.73507 8.77493,-0.89279"
       sodipodi:nodetypes="ccc" />
    <path
       inkscape:connector-curvature="0"
       d="m 169.59494,168.57625 h -26.2042 l 1.80815,-3.70827 1.92969,-3.95549 h 18.72851 l 1.92969,3.95549 z m 0,0"
       style="fill:#e6e6e6;fill-opacity:1;fill-rule:nonzero;stroke:none;stroke-width:0.11829507"
       id="path5204" />
    <path
       inkscape:connector-curvature="0"
       d="m 177.13487,170.72313 c 0,1.18572 -0.96161,2.14594 -2.14687,2.14594 h -36.99171 c -0.59332,0 -1.12981,-0.23982 -1.51796,-0.62798 -0.38816,-0.38908 -0.62752,-0.92557 -0.62752,-1.51796 0,-1.18665 0.96022,-2.14688 2.14548,-2.14688 H 174.988 c 0.59193,0 1.12981,0.23983 1.51796,0.62798 0.38954,0.38955 0.62891,0.92557 0.62891,1.5189 z m 0,0"
       style="fill:#cccccc;fill-opacity:1;fill-rule:nonzero;stroke:none;stroke-width:0.11829507"
       id="path5206" />
    <path
       inkscape:connector-curvature="0"
       d="m 177.13487,170.72313 c 0,1.18572 -0.96161,2.14594 -2.14687,2.14594 h -24.87801 c -0.59333,0 -1.12981,-0.23982 -1.51797,-0.62798 -0.38815,-0.38908 -0.62798,-0.92557 -0.62798,-1.51796 0,-1.18665 0.96022,-2.14688 2.14595,-2.14688 H 174.988 c 0.59193,0 1.12981,0.23983 1.51796,0.62798 0.38954,0.38955 0.62891,0.92557 0.62891,1.5189 z m 0,0"
       style="fill:#e6e6e6;fill-opacity:1;fill-rule:nonzero;stroke:none;stroke-width:0.11829507"
       id="path5208" />
    <path
       inkscape:connector-curvature="0"
       d="m 186.77638,120.76518 v 34.15631 c 0,3.30903 -2.68244,5.991 -5.991,5.991 h -48.58601 c -3.30764,0 -5.99007,-2.68197 -5.99007,-5.991 v -34.15631 c 0,-3.30857 2.68243,-5.991 5.99007,-5.991 h 48.58601 c 3.30856,0 5.991,2.68243 5.991,5.991 z m 0,0"
       style="fill:#3fbfe1;fill-opacity:1;fill-rule:nonzero;stroke:none;stroke-width:0.11829507"
       id="path5210" />
    <path
       inkscape:connector-curvature="0"
       d="m 186.77638,150.03535 v 4.88614 c 0,3.30903 -2.68244,5.991 -5.991,5.991 h -48.58601 c -3.30764,0 -5.99007,-2.68197 -5.99007,-5.991 v -4.88614 z m 0,0"
       style="fill:#e6e6e6;fill-opacity:1;fill-rule:nonzero;stroke:none;stroke-width:0.11829507"
       id="path5212" />
    <path
       inkscape:connector-curvature="0"
       d="m 167.78678,164.86798 h -22.58789 l 1.92969,-3.95549 h 18.72851 z m 0,0"
       style="fill:#cccccc;fill-opacity:1;fill-rule:nonzero;stroke:none;stroke-width:0.11829507"
       id="path5214" />
    <path
       inkscape:connector-curvature="0"
       d="m 158.96456,155.35077 c 0,1.36502 -1.10671,2.47219 -2.47218,2.47219 -1.36502,0 -2.47219,-1.10717 -2.47219,-2.47219 0,-1.36547 1.10717,-2.47218 2.47219,-2.47218 1.36547,0 2.47218,1.10671 2.47218,2.47218 z m 0,0"
       style="fill:#cccccc;fill-opacity:1;fill-rule:nonzero;stroke:none;stroke-width:0.11829507"
       id="path5216" />
    <g
       id="g5338"
       transform="matrix(0.48126796,0,0,0.48126796,76.334583,135.93981)">
      <path
         id="path5244"
         d="M 41.595,58 H 16.405 C 14.525,58 13,56.475 13,54.595 V 3.405 C 13,1.525 14.525,0 16.405,0 H 41.594 C 43.475,0 45,1.525 45,3.405 V 54.594 C 45,56.475 43.475,58 41.595,58 Z"
         style="fill:#424a60"
         inkscape:connector-curvature="0" />
      <rect
         id="rect5246"
         height="40"
         width="32"
         style="fill:#e7eced"
         y="6"
         x="13" />
      <circle
         id="circle5248"
         r="3"
         cy="52"
         cx="29"
         style="fill:#262b35" />
      <path
         id="path5250"
         d="M 29,4 H 25 C 24.447,4 24,3.553 24,3 24,2.447 24.447,2 25,2 h 4 c 0.553,0 1,0.447 1,1 0,0.553 -0.447,1 -1,1 z"
         style="fill:#262b35"
         inkscape:connector-curvature="0" />
      <path
         id="path5252"
         d="M 33,4 H 32 C 31.447,4 31,3.553 31,3 31,2.447 31.447,2 32,2 h 1 c 0.553,0 1,0.447 1,1 0,0.553 -0.447,1 -1,1 z"
         style="fill:#262b35"
         inkscape:connector-curvature="0" />
      <path
         id="path5254"
         d="M 30.962,17.019 H 27.038 C 26.465,17.019 26,16.554 26,15.981 v -3.924 c 0,-0.573 0.465,-1.038 1.038,-1.038 h 3.924 c 0.573,0 1.038,0.465 1.038,1.038 v 3.924 c 0,0.573 -0.465,1.038 -1.038,1.038 z"
         style="fill:#3083c9"
         inkscape:connector-curvature="0" />
      <path
         id="path5256"
         d="M 21.962,17.019 H 18.038 C 17.465,17.019 17,16.554 17,15.981 v -3.924 c 0,-0.573 0.465,-1.038 1.038,-1.038 h 3.924 c 0.573,0 1.038,0.465 1.038,1.038 v 3.924 c 0,0.573 -0.465,1.038 -1.038,1.038 z"
         style="fill:#88c057"
         inkscape:connector-curvature="0" />
      <path
         id="path5258"
         d="M 39.962,17.019 H 36.038 C 35.465,17.019 35,16.554 35,15.981 v -3.924 c 0,-0.573 0.465,-1.038 1.038,-1.038 h 3.924 c 0.573,0 1.038,0.465 1.038,1.038 v 3.924 c 0,0.573 -0.465,1.038 -1.038,1.038 z"
         style="fill:#dc691d"
         inkscape:connector-curvature="0" />
      <path
         id="path5260"
         d="M 30.962,26 H 27.038 C 26.465,26 26,25.535 26,24.962 V 21.038 C 26,20.465 26.465,20 27.038,20 h 3.924 C 31.535,20 32,20.465 32,21.038 v 3.924 C 32,25.535 31.535,26 30.962,26 Z"
         style="fill:#ebba16"
         inkscape:connector-curvature="0" />
      <path
         id="path5262"
         d="M 21.962,26 H 18.038 C 17.465,26 17,25.535 17,24.962 V 21.038 C 17,20.465 17.465,20 18.038,20 h 3.924 C 22.535,20 23,20.465 23,21.038 v 3.924 C 23,25.535 22.535,26 21.962,26 Z"
         style="fill:#7383bf"
         inkscape:connector-curvature="0" />
      <path
         id="path5264"
         d="M 39.962,26 H 36.038 C 35.465,26 35,25.535 35,24.962 V 21.038 C 35,20.465 35.465,20 36.038,20 h 3.924 C 40.535,20 41,20.465 41,21.038 v 3.924 C 41,25.535 40.535,26 39.962,26 Z"
         style="fill:#dd352e"
         inkscape:connector-curvature="0" />
      <path
         id="path5266"
         d="M 30.962,35 H 27.038 C 26.465,35 26,34.535 26,33.962 V 30.038 C 26,29.465 26.465,29 27.038,29 h 3.924 C 31.535,29 32,29.465 32,30.038 v 3.924 C 32,34.535 31.535,35 30.962,35 Z"
         style="fill:#a485be"
         inkscape:connector-curvature="0" />
      <path
         id="path5268"
         d="M 21.962,35 H 18.038 C 17.465,35 17,34.535 17,33.962 V 30.038 C 17,29.465 17.465,29 18.038,29 h 3.924 C 22.535,29 23,29.465 23,30.038 v 3.924 C 23,34.535 22.535,35 21.962,35 Z"
         style="fill:#ea6248"
         inkscape:connector-curvature="0" />
      <path
         id="path5270"
         d="M 39.962,35 H 36.038 C 35.465,35 35,34.535 35,33.962 V 30.038 C 35,29.465 35.465,29 36.038,29 h 3.924 C 40.535,29 41,29.465 41,30.038 v 3.924 C 41,34.535 40.535,35 39.962,35 Z"
         style="fill:#25ae88"
         inkscape:connector-curvature="0" />
      <g
         id="g5272" />
      <g
         id="g5274" />
      <g
         id="g5276" />
      <g
         id="g5278" />
      <g
         id="g5280" />
      <g
         id="g5282" />
      <g
         id="g5284" />
      <g
         id="g5286" />
      <g
         id="g5288" />
      <g
         id="g5290" />
      <g
         id="g5292" />
      <g
         id="g5294" />
      <g
         id="g5296" />
      <g
         id="g5298" />
      <g
         id="g5300" />
    </g>
    <g
       id="g5397"
       transform="translate(4.0632441,-1.0394345)">
      <path
         id="path5350"
         d="m 144.33122,125.1142 v 18.95551 c 0,0.87273 0.7069,1.57962 1.57963,1.57962 h 22.11476 c 0.87273,0 1.57962,-0.70689 1.57962,-1.57962 V 125.1142 Z m 0,0"
         inkscape:connector-curvature="0"
         style="fill:#e1eaf7;stroke-width:0.04936331" />
      <path
         id="path5352"
         d="m 144.33122,120.37532 h 25.27401 v 6.3185 h -25.27401 z m 0,0"
         inkscape:connector-curvature="0"
         style="fill:#b0bec5;stroke-width:0.04936331" />
      <path
         id="path5354"
         d="m 147.49047,122.74476 h 1.57963 v 1.57962 h -1.57963 z m 0,0"
         inkscape:connector-curvature="0"
         style="fill:#ffffff;stroke-width:0.04936331" />
      <path
         id="path5356"
         d="m 150.64972,122.74476 h 1.57963 v 1.57962 h -1.57963 z m 0,0"
         inkscape:connector-curvature="0"
         style="fill:#ffffff;stroke-width:0.04936331" />
      <path
         id="path5358"
         d="m 165.65617,124.32438 h -11.05738 c -0.43598,0 -0.78981,-0.35383 -0.78981,-0.78981 0,-0.43598 0.35383,-0.78981 0.78981,-0.78981 h 11.05738 c 0.43598,0 0.78981,0.35383 0.78981,0.78981 0,0.43598 -0.35383,0.78981 -0.78981,0.78981 z m 0,0"
         inkscape:connector-curvature="0"
         style="fill:#90a4ae;stroke-width:0.04936331" />
    </g>
  </g>
</svg>
